<svg width="61" height="60" viewBox="0 0 61 60" fill="none" xmlns="http://www.w3.org/2000/svg">
<path d="M52.6335 29.4751C52.6335 39.8501 47.1085 52.5001 30.4585 52.5001C17.9451 52.5831 7.72984 42.5134 7.63354 30.0001C7.72984 17.4866 17.9451 7.41687 30.4585 7.50002C35.6353 7.51922 40.6548 9.28045 44.7085 12.5C44.9885 12.7288 45.1608 13.064 45.1835 13.425C45.185 13.7902 45.041 14.141 44.7835 14.4C43.156 15.888 41.604 17.4566 40.1335 19.1C39.7058 19.5708 38.989 19.6359 38.4835 19.25C36.1738 17.5407 33.3555 16.66 30.4835 16.75C23.0967 16.75 17.1085 22.7382 17.1085 30.1251C17.1085 37.5119 23.0967 43.5001 30.4835 43.5001C37.9835 43.5001 41.1585 40.3001 42.8085 34.6251H31.3835C30.6933 34.6251 30.1335 34.0654 30.1335 33.3751V26.7501C30.1335 26.0596 30.6933 25.5001 31.3835 25.5001H51.3835C51.959 25.4964 52.4445 25.9279 52.5085 26.5001C52.6013 27.4889 52.643 28.4819 52.6335 29.4751Z" fill="#032565"/>
</svg>
