<svg width="65" height="65" viewBox="0 0 65 65" fill="none" xmlns="http://www.w3.org/2000/svg">
<path fill-rule="evenodd" clip-rule="evenodd" d="M43.3333 8.78223H21.6667C14.1878 8.78223 8.125 14.845 8.125 22.3239V43.9906C8.125 51.4693 14.1878 57.5322 21.6667 57.5322H43.3333C50.8121 57.5322 56.875 51.4693 56.875 43.9906V22.3239C56.875 14.845 50.8121 8.78223 43.3333 8.78223ZM52.1354 43.9906C52.1205 48.8455 48.1883 52.7777 43.3333 52.7926H21.6667C16.8116 52.7777 12.8795 48.8455 12.8646 43.9906V22.3239C12.8795 17.4688 16.8116 13.5367 21.6667 13.5218H43.3333C48.1883 13.5367 52.1205 17.4688 52.1354 22.3239V43.9906ZM45.3646 23.001C46.8604 23.001 48.0729 21.7884 48.0729 20.2926C48.0729 18.7969 46.8604 17.5843 45.3646 17.5843C43.8688 17.5843 42.6562 18.7969 42.6562 20.2926C42.6562 21.7884 43.8688 23.001 45.3646 23.001ZM32.5 20.9697C25.769 20.9697 20.3125 26.4263 20.3125 33.1572C20.3125 39.8882 25.769 45.3447 32.5 45.3447C39.231 45.3447 44.6875 39.8882 44.6875 33.1572C44.6948 29.9227 43.413 26.8186 41.1258 24.5314C38.8386 22.2442 35.7346 20.9625 32.5 20.9697ZM25.0521 33.1572C25.0521 37.2706 28.3866 40.6051 32.5 40.6051C36.6134 40.6051 39.9479 37.2706 39.9479 33.1572C39.9479 29.0438 36.6134 25.7093 32.5 25.7093C28.3866 25.7093 25.0521 29.0438 25.0521 33.1572Z" fill="white"/>
</svg>
