<svg width="420" height="404" viewBox="0 0 420 404" fill="none" xmlns="http://www.w3.org/2000/svg">
<path d="M25.8197 317.607C-19.1312 225.428 7.09017 147.02 25.8197 119.339C23.0449 180.93 26.6521 292.902 63.2787 248.058C99.9054 203.214 115.305 232.833 118.427 253.248V307.227C119.467 316.569 135.908 337.331 193.345 345.635C250.782 353.939 297.745 330.41 314.046 317.607C304.057 363.282 259.245 389.925 238.088 397.538C186.061 409.303 70.7706 409.787 25.8197 317.607Z" fill="white" stroke="white"/>
<path d="M124.823 196.155L101.931 216.916L94.6476 192.003C100.475 184.529 62.3912 143.906 42.6212 124.529V88.1968C48.4482 58.3008 66.5533 44.5984 74.8776 41.4842C74.0451 90.4806 92.5666 90.965 101.931 85.0827C101.238 72.972 100.891 49.5811 105.053 52.9029C109.215 56.2247 122.048 50.8268 127.945 47.7126C130.026 43.5604 132.939 34.4255 127.945 31.1037C122.95 27.7819 103.666 27.6435 94.6476 27.9895C97.1449 13.8719 115.805 6.19029 124.823 4.11417H218.471C228.182 8.2664 249.27 15.1176 255.93 9.30446C262.589 3.49134 278.128 1.34602 285.065 1V38.3701C298.383 62.453 367.613 94.7712 400.563 107.92V130.757C397.789 141.484 392.863 166.674 395.361 181.622C397.858 196.57 410.969 203.767 417.212 205.497C426.369 227.089 398.136 256.016 382.874 267.781C373.856 271.933 347.704 277.746 315.24 267.781C282.775 257.815 270.497 229.719 268.416 216.916C302.407 221.068 363.937 215.255 338.132 158.785C312.326 102.315 298.938 135.256 295.47 158.785C293.042 168.473 284.232 182.037 268.416 158.785C252.6 135.532 228.529 149.096 218.471 158.785L182.052 192.003L124.823 196.155Z" fill="white" stroke="white"/>
<path d="M331 367.816V315.913C346.816 312.592 372.274 297.92 383.027 291C384.414 291.346 385.524 297.644 378.864 320.066C372.205 342.488 344.18 361.242 331 367.816Z" fill="white" stroke="white"/>
</svg>
