<svg width="751" height="145" viewBox="0 0 751 145" fill="none" xmlns="http://www.w3.org/2000/svg">
<path opacity="0.3" d="M585.135 72.25C587.801 57.4167 592.635 44.5833 599.635 33.75C606.635 22.75 615.051 14.4167 624.885 8.75002C634.718 2.91668 645.135 0 656.135 0C665.301 0 672.885 1.91667 678.885 5.75C684.885 9.41667 689.051 14.5 691.385 21L694.885 1.75002H750.135L725.135 142.75H669.885L673.385 123.5C668.718 130 662.718 135.167 655.385 139C648.051 142.667 639.801 144.5 630.635 144.5C616.468 144.5 605.051 139.75 596.385 130.25C587.718 120.75 583.385 107.583 583.385 90.75C583.385 84.4167 583.968 78.25 585.135 72.25ZM682.385 72.25C682.718 70.75 682.885 68.75 682.885 66.25C682.885 60.5834 681.385 56.25 678.385 53.25C675.385 50.0833 671.301 48.5 666.135 48.5C660.135 48.5 654.801 50.5834 650.135 54.75C645.635 58.9167 642.718 64.75 641.385 72.25C641.051 73.75 640.885 75.75 640.885 78.25C640.885 83.9167 642.385 88.3333 645.385 91.5C648.385 94.5 652.468 96 657.635 96C663.635 96 668.885 93.9167 673.385 89.75C678.051 85.5833 681.051 79.75 682.385 72.25Z" fill="white"/>
<path opacity="0.3" d="M499.859 144.5C487.526 144.5 476.526 142.667 466.859 139C457.359 135.333 449.859 130.25 444.359 123.75C439.026 117.083 436.359 109.5 436.359 101C436.359 97.8333 436.526 95.5 436.859 94H490.109C489.943 98.1667 491.109 101.25 493.609 103.25C496.276 105.25 499.859 106.25 504.359 106.25C507.193 106.25 509.609 105.583 511.609 104.25C513.776 102.917 514.859 101.333 514.859 99.5C514.859 96.8333 513.193 94.75 509.859 93.25C506.526 91.5834 501.026 89.75 493.359 87.75C483.693 85.0833 475.609 82.3333 469.109 79.5C462.776 76.6667 457.193 72.5 452.359 67C447.693 61.3333 445.359 54 445.359 45C445.359 36.6667 447.859 29.0834 452.859 22.25C458.026 15.25 465.193 9.83333 474.359 6C483.693 2 494.443 0 506.609 0C519.943 0 531.359 2.25001 540.859 6.75002C550.526 11.25 557.776 17.3333 562.609 25C567.443 32.6667 569.693 41.1667 569.359 50.5H520.109C520.109 46.6667 518.943 43.75 516.609 41.75C514.276 39.5833 510.859 38.5 506.359 38.5C503.526 38.5 501.109 39.0833 499.109 40.25C497.276 41.4167 496.359 43 496.359 45C496.359 47.5 498.026 49.5834 501.359 51.25C504.693 52.75 510.359 54.75 518.359 57.25C528.193 60.0833 536.276 62.9167 542.609 65.75C549.109 68.4167 554.776 72.5 559.609 78C564.443 83.3333 566.859 90.1667 566.859 98.5C566.859 113 560.609 124.333 548.109 132.5C535.776 140.5 519.693 144.5 499.859 144.5Z" fill="white"/>
<path opacity="0.3" d="M379.566 0.75C394.9 0.75 406.65 4.74999 414.816 12.75C423.15 20.75 427.316 31.8333 427.316 46C427.316 50.6667 426.816 55.6667 425.816 61L411.316 142.75H356.066L369.316 68C369.483 67 369.566 65.5833 369.566 63.75C369.566 58.9167 368.066 55.25 365.066 52.75C362.233 50.0833 358.233 48.75 353.066 48.75C347.066 48.75 341.983 50.4167 337.816 53.75C333.816 56.9167 331.233 61.3333 330.066 67L316.566 142.75H261.316L274.566 68C274.733 67 274.816 65.5833 274.816 63.75C274.816 58.9167 273.316 55.25 270.316 52.75C267.483 50.0833 263.483 48.75 258.316 48.75C252.316 48.75 247.233 50.4167 243.066 53.75C239.066 57.0833 236.483 61.5833 235.316 67.25L221.816 142.75H166.316L191.316 1.75H246.816L243.316 20.75C248.483 14.75 254.816 9.91666 262.316 6.25C269.816 2.58333 278.233 0.75 287.566 0.75C297.733 0.75 306.316 3 313.316 7.5C320.483 11.8333 325.65 18.0833 328.816 26.25C335.316 18.75 342.9 12.6667 351.566 7.99998C360.4 3.16665 369.733 0.75 379.566 0.75Z" fill="white"/>
<path opacity="0.3" d="M166.25 1.75L141.25 142.75H85.75L89.5 121.5C84 128.167 77.25 133.583 69.25 137.75C61.25 141.75 52.3333 143.75 42.5 143.75C28.8333 143.75 18.3333 139.833 11 132C3.66667 124 0 113.083 0 99.25C0 94.25 0.500001 89 1.5 83.5L16 1.75H71.25L58 76.5C57.6667 79.1667 57.5 81 57.5 82C57.5 87.1667 58.9167 91.1667 61.75 94C64.75 96.8333 68.8333 98.25 74 98.25C80 98.25 85.0833 96.3333 89.25 92.5C93.4167 88.6667 96.1667 83.4167 97.5 76.75L110.75 1.75H166.25Z" fill="white"/>
</svg>
